<svg preserveAspectRatio="none" width="100%" height="100%" overflow="visible" style="display: block;" viewBox="0 0 48 48" fill="none" xmlns="http://www.w3.org/2000/svg">
<g id="WarningOctagon" clip-path="url(#clip0_355_55367)">
<g id="Vector">
</g>
<path id="Vector_2" d="M42.6206 15.0431L32.9569 5.37938C32.3926 4.81847 31.63 4.50253 30.8344 4.5H17.1656C16.37 4.50253 15.6074 4.81847 15.0431 5.37938L5.37938 15.0431C4.81847 15.6074 4.50253 16.37 4.5 17.1656V30.8344C4.50253 31.63 4.81847 32.3926 5.37938 32.9569L15.0431 42.6206C15.6074 43.1815 16.37 43.4975 17.1656 43.5H30.8344C31.63 43.4975 32.3926 43.1815 32.9569 42.6206L42.6206 32.9569C43.1815 32.3926 43.4975 31.63 43.5 30.8344V17.1656C43.4975 16.37 43.1815 15.6074 42.6206 15.0431ZM22.5 15C22.5 14.6022 22.658 14.2206 22.9393 13.9393C23.2206 13.658 23.6022 13.5 24 13.5C24.3978 13.5 24.7794 13.658 25.0607 13.9393C25.342 14.2206 25.5 14.6022 25.5 15V25.5C25.5 25.8978 25.342 26.2794 25.0607 26.5607C24.7794 26.842 24.3978 27 24 27C23.6022 27 23.2206 26.842 22.9393 26.5607C22.658 26.2794 22.5 25.8978 22.5 25.5V15ZM24 34.5C23.555 34.5 23.12 34.368 22.75 34.1208C22.38 33.8736 22.0916 33.5222 21.9213 33.111C21.751 32.6999 21.7064 32.2475 21.7932 31.811C21.88 31.3746 22.0943 30.9737 22.409 30.659C22.7237 30.3443 23.1246 30.13 23.561 30.0432C23.9975 29.9564 24.4499 30.001 24.861 30.1713C25.2722 30.3416 25.6236 30.63 25.8708 31C26.118 31.37 26.25 31.805 26.25 32.25C26.25 32.8467 26.0129 33.419 25.591 33.841C25.169 34.2629 24.5967 34.5 24 34.5Z" fill="var(--fill-0, #D93657)"/>
</g>
<defs>
<clipPath id="clip0_355_55367">
<rect width="48" height="48" fill="white"/>
</clipPath>
</defs>
</svg>
